<svg aria-hidden="true" style="position: absolute; width: 0; height: 0; overflow: hidden;" version="1.1" xmlns="http://www.w3.org/2000/svg" xmlns:xlink="http://www.w3.org/1999/xlink">
<defs>
<symbol id="icon-map" viewBox="0 0 24 32">
<path d="M13.481 31.2c3.206-4.012 10.519-13.738 10.519-19.2 0-6.625-5.375-12-12-12s-12 5.375-12 12c0 5.462 7.313 15.188 10.519 19.2 0.769 0.956 2.194 0.956 2.963 0zM12 8c2.209 0 4 1.791 4 4s-1.791 4-4 4v0c-2.209 0-4-1.791-4-4s1.791-4 4-4v0z"></path>
</symbol>
<symbol id="icon-twitter" viewBox="0 0 32 32">
<path d="M28.711 9.482c0.020 0.284 0.020 0.569 0.020 0.853 0 8.67-6.599 18.66-18.66 18.66-3.716 0-7.168-1.076-10.071-2.944 0.528 0.061 1.036 0.081 1.584 0.081 3.066 0 5.888-1.035 8.142-2.802-2.883-0.061-5.3-1.949-6.132-4.548 0.406 0.061 0.812 0.102 1.239 0.102 0.589 0 1.178-0.081 1.726-0.223-3.005-0.609-5.259-3.249-5.259-6.437v-0.081c0.873 0.487 1.888 0.792 2.964 0.832-1.766-1.178-2.924-3.188-2.924-5.462 0-1.218 0.325-2.335 0.893-3.31 3.228 3.98 8.081 6.579 13.523 6.863-0.101-0.487-0.162-0.995-0.162-1.502 0-3.614 2.924-6.558 6.558-6.558 1.888 0 3.594 0.792 4.792 2.071 1.482-0.284 2.904-0.832 4.162-1.584-0.487 1.523-1.523 2.802-2.883 3.614 1.32-0.142 2.599-0.508 3.777-1.015-0.893 1.299-2.010 2.457-3.289 3.391z"></path>
</symbol>
<symbol id="icon-tiktok" viewBox="0 0 32 32">
<path d="M29.953 13.155c-2.852 0-5.496-0.912-7.653-2.461v11.18c0 5.584-4.543 10.125-10.125 10.125-2.157 0-4.159-0.68-5.803-1.835-2.611-1.833-4.323-4.865-4.323-8.291 0-5.584 4.543-10.127 10.127-10.127 0.464 0 0.917 0.039 1.364 0.099v5.616c-0.432-0.135-0.888-0.213-1.364-0.213-2.549 0-4.624 2.075-4.624 4.625 0 1.776 1.008 3.319 2.48 4.093 0.641 0.337 1.371 0.531 2.145 0.531 2.491 0 4.523-1.981 4.616-4.451l0.004-22.047h5.501c0 0.477 0.047 0.943 0.129 1.396 0.388 2.096 1.632 3.895 3.356 5.019 1.2 0.783 2.632 1.24 4.168 1.24v5.5z"></path>
</symbol>
<symbol id="icon-zalo" viewBox="0 0 32 32">
<path d="M15.986 0c8.984 0.058 15.995 7.243 15.995 16.005-0.010 8.984-7.282 15.995-15.995 15.986-8.868 0-16.015-7.214-15.986-16.024 0.029-8.742 7.060-15.918 15.986-15.966zM8.945 13.336c-0.097 0.193-0.135 0.338-0.232 0.464-1.025 1.335-2.060 2.659-3.075 3.994-0.3 0.387-0.6 0.774-0.812 1.209-0.338 0.687 0 1.296 0.754 1.412 0.358 0.058 0.725 0.068 1.093 0.068 1.47 0 2.95 0.010 4.419-0.010 0.6-0.010 0.919-0.377 0.909-0.948-0.019-0.532-0.387-0.88-0.957-0.89-1.064-0.010-2.137-0.010-3.201-0.019-0.106 0-0.203 0-0.358 0 0.077-0.116 0.106-0.184 0.155-0.242 0.561-0.735 1.131-1.47 1.692-2.205 0.754-0.996 1.499-2.002 2.244-3.008 0.242-0.338 0.329-0.706 0.126-1.093-0.203-0.377-0.542-0.551-0.957-0.551-1.547 0-3.095-0.010-4.642 0-0.271 0-0.561 0.087-0.812 0.193-0.3 0.126-0.416 0.406-0.406 0.735 0.010 0.319 0.145 0.58 0.435 0.687 0.271 0.106 0.571 0.174 0.861 0.184 0.783 0.029 1.576 0.010 2.36 0.010 0.106 0.010 0.222 0.010 0.406 0.010zM18.103 17.262c0 0 0 0 0 0-0.010-0.764 0-1.518-0.010-2.282 0-0.348-0.193-0.6-0.503-0.735-0.348-0.155-0.706-0.184-0.986 0.126-0.203 0.222-0.387 0.222-0.619 0.068-0.919-0.619-2.234-0.513-3.114 0.338-0.938 0.909-1.219 2.041-0.948 3.307 0.203 0.957 0.725 1.702 1.605 2.157 0.832 0.425 1.644 0.358 2.437-0.106 0.348-0.203 0.348-0.193 0.648 0.058 0.222 0.193 0.474 0.251 0.764 0.193 0.435-0.097 0.725-0.396 0.735-0.851 0.010-0.764-0.010-1.518-0.010-2.273zM27.281 17.465c-0.010-1.944-1.093-3.201-2.785-3.394-1.538-0.184-2.911 0.687-3.346 2.099-0.435 1.431-0.029 2.93 1.083 3.733 1.064 0.774 2.244 0.832 3.404 0.232 1.131-0.58 1.605-1.586 1.644-2.669zM18.645 15.927c0 0.484 0 0.957 0 1.441 0 0.696-0.010 1.393 0.010 2.089 0.010 0.551 0.338 0.899 0.841 0.928 0.532 0.029 0.88-0.261 0.967-0.812 0.019-0.126 0.029-0.261 0.029-0.396 0-2.157 0-4.323 0-6.479 0-0.145 0-0.3-0.019-0.445-0.077-0.455-0.348-0.706-0.822-0.745-0.455-0.039-0.764 0.155-0.909 0.59-0.048 0.155-0.068 0.319-0.068 0.484-0.029 1.112-0.029 2.234-0.029 3.346z"></path>
<path d="M13.665 17.243c0.087-0.28 0.135-0.58 0.261-0.851 0.203-0.435 0.58-0.648 1.064-0.648 0.464 0 0.822 0.213 1.035 0.619 0.319 0.609 0.319 1.247-0.019 1.857-0.242 0.455-0.677 0.58-1.16 0.551-0.464-0.029-0.793-0.29-0.967-0.706-0.106-0.242-0.135-0.522-0.213-0.822z"></path>
<path d="M22.852 17.281c0.010-0.435 0.116-0.851 0.416-1.17 0.513-0.551 1.393-0.474 1.837 0.135 0.367 0.513 0.396 1.422 0.058 1.953-0.28 0.435-0.764 0.658-1.286 0.551-0.532-0.106-0.822-0.464-0.957-0.967-0.039-0.155-0.039-0.329-0.068-0.503z"></path>
</symbol>
<symbol id="icon-web" viewBox="0 0 32 32">
<path d="M31.219 21.453s-11.645-5.293-11.687-5.307c-0.971-0.331-2.024-0.087-2.749 0.639s-0.969 1.779-0.589 2.868l5.259 11.567c0.212 0.468 0.675 0.772 1.189 0.781h0.025c0.504 0 0.967-0.285 1.193-0.737l2.468-4.936 4.936-2.468c0.46-0.231 0.747-0.703 0.737-1.217-0.009-0.513-0.313-0.976-0.781-1.189zM24.737 24.141c-0.257 0.129-0.468 0.339-0.596 0.596l-1.419 2.837-4.059-8.901 8.908 4.051-2.833 1.416zM17.216 29.28c-0.229 0.020-0.46 0.035-0.693 0.044-0.891-0.881-3.213-3.357-4.832-6.656h0.976c0.736 0 1.333-0.596 1.333-1.333s-0.597-1.333-1.333-1.333h-2.040c-0.388-1.269-0.627-2.613-0.627-4s0.24-2.729 0.629-4h10.743c0.157 0.516 0.291 1.044 0.393 1.583 0.139 0.724 0.839 1.201 1.559 1.060 0.723-0.137 1.197-0.836 1.060-1.559-0.069-0.367-0.152-0.728-0.244-1.084h4.524c0.017 0 0.036 0 0.053 0 0.399 1.264 0.613 2.608 0.613 4.001 0 0.409-0.019 0.813-0.055 1.213-0.065 0.733 0.475 1.381 1.208 1.448 0.736 0.072 1.383-0.475 1.448-1.208 0.043-0.479 0.065-0.964 0.065-1.453 0.003-8.825-7.175-16.003-15.997-16.003s-16 7.177-16 16 7.177 16 15.999 16v0c0.489 0 0.973-0.023 1.451-0.065 0.733-0.065 1.276-0.712 1.211-1.447-0.065-0.732-0.711-1.273-1.445-1.209zM7.856 20.001h-4.523c-0.017 0-0.035 0-0.053 0-0.399-1.264-0.613-2.608-0.613-4.001s0.215-2.737 0.613-4.001c0.017 0 0.035 0 0.053 0h4.523c-0.327 1.273-0.523 2.612-0.523 4s0.195 2.727 0.523 4zM11.697 9.335c1.361-2.769 3.22-4.965 4.305-6.117 1.087 1.151 2.945 3.343 4.307 6.117h-8.612zM27.544 9.335h-4.304c-1.055-2.515-2.517-4.651-3.776-6.209 3.439 0.927 6.332 3.196 8.080 6.209zM12.533 3.125c-1.259 1.559-2.723 3.695-3.776 6.208h-4.301c1.747-3.013 4.639-5.283 8.077-6.208zM4.456 22.667h4.301c1.053 2.515 2.517 4.649 3.776 6.208-3.437-0.927-6.329-3.196-8.077-6.208z"></path>
</symbol>
<symbol id="icon-film" viewBox="0 0 32 32">
<path d="M22.552 1.333h2.781c0.828 0 1.62 0.152 2.352 0.429l-7.571 7.571h-5.563l8-8zM32 9.333v-1.333c0-1.867-0.772-3.557-2.013-4.768l-6.101 6.101h8.115zM14.029 1.333l-8.112 8h4.864l8-8h-4.752zM2.12 9.333l8.112-8h-3.565c-3.676 0-6.667 2.991-6.667 6.667v1.333h2.12zM32 12v12c0 3.676-2.991 6.667-6.667 6.667h-18.667c-3.676 0-6.667-2.991-6.667-6.667v-12h32zM20.063 20.267l-6.179-3.307c-0.829-0.497-1.884 0.1-1.884 1.067v6.615c0 0.967 1.055 1.564 1.884 1.067l6.179-3.307c0.805-0.483 0.805-1.651 0-2.133z"></path>
</symbol>
<symbol id="icon-line" viewBox="0 0 32 32">
<path d="M24.787 0h-17.573c-3.984 0-7.213 3.229-7.213 7.213v17.573c0 3.984 3.229 7.213 7.213 7.213h17.573c3.984 0 7.213-3.229 7.213-7.213v-17.573c0-3.984-3.231-7.213-7.213-7.213zM24.379 19.82v0c-2.239 2.576-7.243 5.715-8.381 6.195s-0.971-0.305-0.924-0.576c0.028-0.16 0.152-0.913 0.152-0.913 0.036-0.272 0.073-0.695-0.035-0.964-0.12-0.297-0.592-0.451-0.94-0.527-5.127-0.677-8.923-4.261-8.923-8.541 0-4.773 4.787-8.659 10.669-8.659s10.669 3.884 10.669 8.659c-0.001 1.909-0.741 3.631-2.288 5.327z"></path>
<path d="M21.080 13.349v0.785h2.037c0.112 0 0.204 0.092 0.204 0.204v0.757c0 0.112-0.091 0.204-0.204 0.204h-2.037v0.785h2.037c0.112 0 0.204 0.092 0.204 0.204v0.757c0 0.112-0.091 0.203-0.204 0.203h-2.997c-0.112 0-0.204-0.091-0.204-0.203v-4.657c0-0.112 0.091-0.204 0.204-0.204h2.997c0.112 0 0.204 0.091 0.204 0.204v0.756c0 0.112-0.091 0.204-0.204 0.204h-2.037z"></path>
<path d="M12.232 16.289v0.757c0 0.112-0.091 0.203-0.204 0.203h-2.997c-0.112 0-0.203-0.091-0.203-0.203v-4.657c0-0.112 0.091-0.204 0.203-0.204h0.757c0.112 0 0.204 0.091 0.204 0.204v3.696h2.037c0.112 0 0.203 0.092 0.203 0.204z"></path>
<path d="M14.037 12.389v4.656c0 0.112-0.091 0.203-0.204 0.203h-0.756c-0.112 0-0.204-0.091-0.204-0.203v-4.656c0-0.112 0.091-0.204 0.204-0.204h0.756c0.112 0 0.204 0.092 0.204 0.204z"></path>
<path d="M19.188 12.389v4.656c0 0.112-0.091 0.203-0.204 0.203h-0.752c-0.067 0-0.132-0.033-0.171-0.088l-2.133-2.88v2.765c0 0.112-0.091 0.203-0.204 0.203h-0.757c-0.112 0-0.204-0.091-0.204-0.203v-4.656c0-0.112 0.091-0.204 0.204-0.204h0.752c0.071 0 0.132 0.037 0.173 0.092 0 0 2.131 2.877 2.131 2.877v-2.765c0-0.112 0.091-0.204 0.204-0.204h0.757c0.113 0 0.204 0.092 0.204 0.204z"></path>
</symbol>
<symbol id="icon-shop" viewBox="0 0 32 32">
<path d="M31.949 10.3l-1.563-5.465c-0.813-2.847-3.451-4.835-6.411-4.835h-1.309v5.333c-0.008 1.744-2.66 1.743-2.667 0v-5.333h-8v5.333c-0.008 1.744-2.659 1.743-2.667 0v-5.333h-1.311c-2.96 0-5.596 1.988-6.411 4.835l-1.56 5.465c-0.215 1.421 0.419 2.851 1.281 3.857v12.509c0 2.941 2.392 5.333 5.333 5.333h8c2.941 0 5.333-2.392 5.333-5.333v-11.408c0.504-0.295 0.952-0.664 1.333-1.101 0.979 1.12 2.399 1.843 4 1.843h1.333c0.463 0 0.904-0.077 1.333-0.189v14.856c0.008 1.744 2.66 1.743 2.667 0v-16.509c0.864-1.005 1.496-2.435 1.283-3.857zM17.333 22.667h-13.333v-6.856c0.429 0.112 0.871 0.189 1.333 0.189h1.333c1.6 0 3.021-0.723 4-1.843 0.979 1.12 2.4 1.843 4 1.843h2.667v6.667z"></path>
</symbol>
<symbol id="icon-instagram" viewBox="0 0 32 32">
<path d="M16 2.883c4.272 0 4.779 0.016 6.465 0.093 1.744 0.080 3.54 0.477 4.811 1.748 1.283 1.283 1.668 3.061 1.748 4.811 0.077 1.687 0.093 2.193 0.093 6.465s-0.016 4.779-0.093 6.465c-0.079 1.735-0.485 3.548-1.748 4.811-1.283 1.283-3.060 1.668-4.811 1.748-1.687 0.077-2.193 0.093-6.465 0.093s-4.779-0.016-6.465-0.093c-1.721-0.079-3.559-0.495-4.811-1.748-1.276-1.276-1.668-3.072-1.748-4.811-0.077-1.687-0.093-2.193-0.093-6.465s0.016-4.779 0.093-6.465c0.079-1.728 0.489-3.552 1.748-4.811 1.28-1.28 3.065-1.668 4.811-1.748 1.687-0.077 2.193-0.093 6.465-0.093zM16 0c-4.345 0-4.891 0.019-6.597 0.096-2.473 0.113-4.929 0.801-6.717 2.589-1.795 1.795-2.476 4.245-2.589 6.717-0.077 1.707-0.096 2.252-0.096 6.597s0.019 4.891 0.096 6.597c0.113 2.471 0.804 4.933 2.589 6.717 1.793 1.793 4.248 2.476 6.717 2.589 1.707 0.077 2.252 0.096 6.597 0.096s4.891-0.019 6.597-0.096c2.472-0.113 4.931-0.803 6.717-2.589 1.796-1.796 2.476-4.245 2.589-6.717 0.077-1.707 0.096-2.252 0.096-6.597s-0.019-4.891-0.096-6.597c-0.113-2.473-0.803-4.931-2.589-6.717-1.791-1.791-4.252-2.477-6.717-2.589-1.707-0.077-2.252-0.096-6.597-0.096z"></path>
<path d="M16 7.784c-4.537 0-8.216 3.679-8.216 8.216s3.679 8.216 8.216 8.216 8.216-3.679 8.216-8.216c0-4.537-3.679-8.216-8.216-8.216zM16 21.333c-2.945 0-5.333-2.388-5.333-5.333s2.388-5.333 5.333-5.333 5.333 2.388 5.333 5.333-2.388 5.333-5.333 5.333z"></path>
<path d="M26.461 7.459c0 1.060-0.86 1.92-1.92 1.92s-1.92-0.86-1.92-1.92c0-1.060 0.86-1.92 1.92-1.92s1.92 0.86 1.92 1.92z"></path>
</symbol>
<symbol id="icon-telegram" viewBox="0 0 31 32">
<path d="M15.5 0.5c-8.56 0-15.5 6.94-15.5 15.5s6.94 15.5 15.5 15.5 15.5-6.94 15.5-15.5-6.94-15.5-15.5-15.5zM22.684 11.041c-0.233 2.451-1.243 8.399-1.756 11.144-0.217 1.162-0.645 1.551-1.059 1.589-0.9 0.083-1.584-0.595-2.455-1.166-1.364-0.894-2.135-1.451-3.459-2.324-1.53-1.008-0.538-1.563 0.334-2.469 0.228-0.237 4.194-3.844 4.271-4.172 0.010-0.041 0.019-0.194-0.072-0.274s-0.224-0.053-0.321-0.031q-0.205 0.047-6.538 4.321-0.928 0.637-1.681 0.621c-0.553-0.012-1.618-0.313-2.409-0.57-0.971-0.316-1.742-0.482-1.675-1.018q0.053-0.419 1.153-0.856 6.778-2.953 9.039-3.894c4.305-1.79 5.199-2.101 5.782-2.112 0.128-0.002 0.415 0.030 0.601 0.18 0.12 0.105 0.201 0.251 0.22 0.417l0 0.003c0.021 0.127 0.033 0.273 0.033 0.421 0 0.067-0.002 0.133-0.007 0.198l0-0.009z"></path>
</symbol>
<symbol id="icon-youtube" viewBox="0 0 32 32">
<path d="M31.331 8.248c-0.368-1.385-1.452-2.477-2.829-2.848-2.495-0.672-12.501-0.672-12.501-0.672s-10.007 0-12.503 0.672c-1.376 0.371-2.46 1.461-2.828 2.848-0.669 2.512-0.669 7.752-0.669 7.752s0 5.24 0.669 7.752c0.368 1.385 1.452 2.477 2.829 2.848 2.495 0.672 12.501 0.672 12.501 0.672s10.007 0 12.503-0.672c1.376-0.371 2.46-1.461 2.829-2.848 0.668-2.512 0.668-7.752 0.668-7.752s0-5.24-0.669-7.752zM12.728 20.759v-9.517l8.363 4.759-8.363 4.759z"></path>
</symbol>
<symbol id="icon-facebook" viewBox="0 0 32 32">
<path d="M32 16.097c0 7.985-5.859 14.605-13.507 15.807v-11.151h3.719l0.708-4.613h-4.427v-2.993c0-1.263 0.619-2.492 2.6-2.492h2.012v-3.928c0 0-1.827-0.312-3.572-0.312-3.645 0-6.027 2.209-6.027 6.208v3.516h-4.052v4.613h4.052v11.151c-7.647-1.203-13.507-7.821-13.507-15.805 0-8.836 7.164-16 16-16s16 7.163 16 16z"></path>
</symbol>
<symbol id="icon-phone1" viewBox="0 0 32 32">
<path d="M17.333 1.333c0-0.736 0.597-1.333 1.333-1.333v0c7.36 0.008 13.325 5.973 13.333 13.333v0.001c0 0.736-0.597 1.333-1.333 1.333s-1.333-0.597-1.333-1.333v0c-0.007-5.888-4.778-10.66-10.666-10.667h-0.001c-0.736 0-1.333-0.597-1.333-1.333v0zM18.667 8c2.946 0 5.333 2.388 5.333 5.333v0c0 0.736 0.597 1.333 1.333 1.333s1.333-0.597 1.333-1.333v0c-0.005-4.416-3.584-7.995-8-8h-0c-0.736 0-1.333 0.597-1.333 1.333s0.597 1.333 1.333 1.333v0zM30.791 22.319c0.746 0.748 1.207 1.779 1.207 2.919s-0.461 2.171-1.207 2.919l0-0-1.213 1.399c-10.92 10.455-37.493-16.112-27.2-27.067l1.533-1.333c0.738-0.716 1.747-1.157 2.858-1.157 1.138 0 2.168 0.463 2.912 1.21l0 0c0.041 0.041 2.512 3.251 2.512 3.251 0.705 0.74 1.139 1.744 1.139 2.85 0 1.11-0.438 2.118-1.15 2.861l0.001-0.001-1.544 1.941c1.763 4.208 5.038 7.489 9.129 9.218l0.112 0.042 1.953-1.553c0.741-0.71 1.749-1.148 2.858-1.148 1.106 0 2.11 0.434 2.851 1.141l-0.002-0.002s3.208 2.469 3.249 2.511zM28.956 24.257s-3.191-2.455-3.232-2.496c-0.265-0.263-0.63-0.425-1.033-0.425s-0.768 0.162-1.033 0.425l0-0c-0.036 0.037-2.725 2.18-2.725 2.18-0.226 0.181-0.515 0.29-0.83 0.29-0.171 0-0.334-0.032-0.484-0.091l0.009 0.003c-5.453-2.070-9.683-6.295-11.715-11.607l-0.046-0.137c-0.062-0.148-0.098-0.321-0.098-0.502 0-0.316 0.11-0.606 0.293-0.834l-0.002 0.003s2.143-2.691 2.179-2.725c0.263-0.265 0.425-0.63 0.425-1.033s-0.162-0.768-0.425-1.033l0 0c-0.041-0.040-2.496-3.233-2.496-3.233-0.258-0.232-0.602-0.375-0.979-0.375-0.404 0-0.769 0.163-1.034 0.427l0-0-1.533 1.333c-7.523 9.045 15.505 30.796 23.432 23.305l1.215-1.4c0.295-0.274 0.479-0.664 0.479-1.097 0-0.376-0.139-0.719-0.367-0.981l0.002 0.002z"></path>
</symbol>
<symbol id="icon-phone" viewBox="0 0 32 32">
<path d="M30.667 14.667c-0.736 0-1.333-0.597-1.333-1.333v0c-0.006-5.889-4.778-10.661-10.666-10.667h-0.001c-0.736 0-1.333-0.597-1.333-1.333s0.597-1.333 1.333-1.333v0c7.36 0.008 13.325 5.973 13.333 13.333v0.001c0 0.736-0.597 1.333-1.333 1.333v0zM26.667 13.333c0-4.418-3.582-8-8-8v0c-0.736 0-1.333 0.597-1.333 1.333s0.597 1.333 1.333 1.333v0c2.946 0 5.333 2.388 5.333 5.333v0c0 0.736 0.597 1.333 1.333 1.333s1.333-0.597 1.333-1.333v0zM29.577 29.552l1.213-1.399c0.745-0.747 1.206-1.779 1.206-2.918s-0.461-2.171-1.206-2.918l0 0c-0.041-0.041-3.249-2.509-3.249-2.509-0.74-0.705-1.744-1.14-2.85-1.14-1.11 0-2.117 0.437-2.86 1.149l0.001-0.001-2.541 2.141c-4.203-1.771-7.479-5.052-9.201-9.146l-0.042-0.112 2.133-2.533c0.711-0.741 1.149-1.749 1.149-2.86 0-1.106-0.434-2.11-1.141-2.851l0.002 0.002s-2.471-3.204-2.512-3.245c-0.745-0.749-1.776-1.213-2.915-1.213-1.109 0-2.115 0.439-2.854 1.153l0.001-0.001-1.533 1.333c-9.059 10.509 10.448 29.865 21.304 29.517 0.014 0 0.031 0 0.048 0 2.288 0 4.358-0.936 5.846-2.447l0.001-0.001z"></path>
</symbol>
</defs>
</svg>
